<?xml version="1.0" standalone="no"?>
<!DOCTYPE svg PUBLIC "-//W3C//DTD SVG 1.1//EN" "http://www.w3.org/Graphics/SVG/1.1/DTD/svg11.dtd" >
<svg xmlns="http://www.w3.org/2000/svg">
<metadata>
Created by FontForge 20120731 at Fri Apr  7 15:14:53 2017
 By admin
</metadata>
<defs>
<font id="iconfont" horiz-adv-x="1024" >
  <font-face 
    font-family="iconfont"
    font-weight="500"
    font-stretch="normal"
    units-per-em="1024"
    panose-1="2 0 6 3 0 0 0 0 0 0"
    ascent="896"
    descent="-128"
    x-height="792"
    bbox="-1 -221 1279 896"
    underline-thickness="0"
    underline-position="0"
    unicode-range="U+0078-E7A3"
  />
<missing-glyph 
 />
    <glyph glyph-name=".notdef" 
 />
    <glyph glyph-name=".notdef" 
 />
    <glyph glyph-name=".null" horiz-adv-x="0" 
 />
    <glyph glyph-name="nonmarkingreturn" horiz-adv-x="341" 
 />
    <glyph glyph-name="x" unicode="x" horiz-adv-x="1001" 
d="M281 543q-27 -1 -53 -1h-83q-18 0 -36.5 -6t-32.5 -18.5t-23 -32t-9 -45.5v-76h912v41q0 16 -0.5 30t-0.5 18q0 13 -5 29t-17 29.5t-31.5 22.5t-49.5 9h-133v-97h-438v97zM955 310v-52q0 -23 0.5 -52t0.5 -58t-10.5 -47.5t-26 -30t-33 -16t-31.5 -4.5q-14 -1 -29.5 -0.5
t-29.5 0.5h-32l-45 128h-439l-44 -128h-29h-34q-20 0 -45 1q-25 0 -41 9.5t-25.5 23t-13.5 29.5t-4 30v167h911zM163 247q-12 0 -21 -8.5t-9 -21.5t9 -21.5t21 -8.5q13 0 22 8.5t9 21.5t-9 21.5t-22 8.5zM316 123q-8 -26 -14 -48q-5 -19 -10.5 -37t-7.5 -25t-3 -15t1 -14.5
t9.5 -10.5t21.5 -4h37h67h81h80h64h36q23 0 34 12t2 38q-5 13 -9.5 30.5t-9.5 34.5q-5 19 -11 39h-368zM336 498v228q0 11 2.5 23t10 21.5t20.5 15.5t34 6h188q31 0 51.5 -14.5t20.5 -52.5v-227h-327z" />
    <glyph glyph-name="zhexiantu" unicode="&#xe686;" 
d="M193 11h798q17 0 24 -7t7 -24v-41q0 -28 -27 -28h-481.5h-482.5q-26 0 -27 27q0 18 0.5 45.5t27.5 27.5h161zM435 650q-1 29 16.5 51.5t45.5 28.5q27 6 52 -8t35 -40q4 -11 16 -13q26 -5 55 -11q9 -2 16 5q34 35 81 21q11 -4 20 4q38 32 88 72q8 7 7 17q-3 32 17.5 56
t52.5 27q30 3 55.5 -17t27.5 -49q4 -34 -15.5 -59t-51.5 -28q-7 -1 -19.5 1t-15.5 2q-11 0 -15 -3q-49 -39 -90 -74q-8 -7 -8 -17q1 -30 -15.5 -52.5t-45.5 -29.5q-27 -6 -51.5 7.5t-36.5 39.5q-4 8 -11 9q-33 8 -63 13q-8 1 -15 -5q-35 -30 -78 -18q-9 2 -16 -3
q-17 -13 -48 -38t-44 -35q-8 -6 -8 -17q3 -46 -33.5 -70.5t-78.5 -4.5q-7 3 -15 -1q-43 -24 -80 -47q-7 -4 -7 -13q-2 -30 -21 -51.5t-46 -24.5q-32 -3 -55.5 12.5t-30.5 45.5q-12 46 24 77q37 31 83 12q9 -4 18 1q43 26 79 46q9 5 9 16q2 38 33 59.5t68 9.5q11 -3 19 4
q45 36 82 64q19 15 14 28z" />
    <glyph glyph-name="chevron-down" unicode="&#xe73d;" horiz-adv-x="1025" 
d="M877 562l-365 -365l-365 365q-25 25 -61 25t-61 -25t-25 -61t25 -61l426 -426q25 -25 61 -25t61 25l426 426q25 25 25 61t-25 61t-61 25t-61 -25z" />
    <glyph glyph-name="yonghu" unicode="&#xe600;" 
d="M691 242q62 43 98.5 110.5t36.5 145.5q0 130 -92 222t-222 92q-85 0 -157 -42t-113 -113.5t-41 -155.5q0 -79 36 -146.5t98 -109.5q-139 -56 -225.5 -180t-86.5 -277v0h88v0q0 153 102 267t252 132l7 0.5t17 1t22 0.5t27 -0.5t27 -1.5h5v0q146 -21 244.5 -133.5
t98.5 -263.5v0h90v0q-2 152 -88 275.5t-224 176.5zM512 266q-98 0 -166.5 68.5t-68.5 166t68.5 166t166.5 68.5t166.5 -68.5t68.5 -166t-68.5 -166t-166.5 -68.5z" />
    <glyph glyph-name="shezhi" unicode="&#xe601;" 
d="M662 -173v0q-28 0 -46 20t-48 40.5t-56 20.5t-56.5 -20.5t-47.5 -39.5q-18 -19 -46 -19q-13 0 -24 5h-1l-122 68l-1 1q-16 11 -21.5 31.5t2.5 38.5q11 26 11 49q0 53 -37.5 91t-91.5 38h-4h-1q-15 0 -26.5 12.5t-15.5 33.5q-10 55 -10 97t10 97q4 21 16 33.5t27 11.5h4
q54 0 91.5 38t37.5 91q0 24 -11 49q-8 19 -2.5 39t21.5 31l2 1l128 71h1q11 5 23 5q29 0 47 -19t47 -38.5t55 -19.5q25 0 54 19t47 37q18 19 46 19q13 0 24 -5h1l124 -69l1 -1q16 -11 22 -31t-3 -39q-11 -26 -11 -49q0 -53 38 -91t91 -38h4q16 1 27.5 -11.5t15.5 -33.5
q10 -55 10 -97t-10 -97q-4 -21 -15.5 -33.5t-27.5 -12.5h-4q-53 0 -91 -38t-38 -91q0 -24 11 -49q9 -18 3 -38.5t-22 -31.5l-1 -1l-126 -69l-1 -1q-11 -5 -24 -5zM658 -113q2 -1 4 -1v0l118 64q-16 37 -16 72q0 75 51.5 129t125.5 58q9 50 9 84.5t-9 84.5q-74 4 -125.5 58
t-51.5 129q0 35 16 72l-116 64v0q-3 0 -5 -1q-17 -19 -42 -36q-54 -38 -100 -38q-47 0 -101 39q-25 18 -43 36q-2 2 -5 2v-1l-120 -65q16 -37 16 -72q0 -75 -51.5 -129t-125.5 -58q-9 -50 -9 -84.5t9 -84.5q74 -4 125.5 -58t51.5 -129q0 -35 -16 -72l114 -63v0q2 0 4 1
q18 20 43 38q55 40 103 40t103 -41q25 -18 43 -38v0zM512 123q-71 0 -121 50.5t-50 121t50 120.5t121 50t121 -50t50 -120.5t-50 -121t-121 -50.5zM512 407q-47 0 -80 -33t-33 -79.5t33 -80t80 -33.5t80 33.5t33 80t-33 79.5t-80 33z" />
    <glyph glyph-name="menu" unicode="&#xe60c;" 
d="M519 288zM527 280zM0 -186v153h1024v-153h-1024zM0 377h1024v-154h-1024v154zM0 786h1024v-153h-1024v153z" />
    <glyph glyph-name="qianbao" unicode="&#xe602;" 
d="M808 -185h-592q-73 0 -125 52t-52 125v592q0 73 52 125t125 52h355q57 0 102.5 -33t64.5 -85h70q73 0 125 -52t52 -126v-473q0 -73 -52 -125t-125 -52zM571 702h-355q-45 0 -78 -30t-39 -74q51 45 117 45h457q-16 27 -43 43t-59 16zM926 347q0 12 -8.5 21t-20.5 9h-296
q-13 0 -21.5 -9t-8.5 -21v-177q0 -13 8.5 -21.5t21.5 -8.5h296q12 0 20.5 8.5t8.5 21.5v177zM926 81h-355q-24 0 -41.5 17.5t-17.5 41.5v237q0 24 17.5 41.5t41.5 17.5h355v29q0 49 -34.5 84t-83.5 35h-592q-49 0 -83.5 -35t-34.5 -84v-473q0 -49 34.5 -83.5t83.5 -34.5h592
q49 0 83.5 34.5t34.5 83.5v89v0zM630 288h59v-59h-59v59z" />
    <glyph glyph-name="liulanqi" unicode="&#xe60f;" 
d="M848 831h-672q-63 0 -107.5 -44.5t-44.5 -108.5v-549q0 -63 44.5 -108t107.5 -45h672q63 0 107.5 45t44.5 108v549q0 64 -44.5 108.5t-107.5 44.5zM176 770h672q38 0 64.5 -27t26.5 -65v-29h-854v29q0 38 26.5 65t64.5 27zM848 37h-672q-38 0 -64.5 27t-26.5 65v458h854
v-458q0 -38 -26.5 -65t-64.5 -27v0zM206.5 678q12.5 0 21.5 9t9 22t-9 21.5t-21.5 8.5t-21.5 -8.5t-9 -21.5t9 -22t21.5 -9zM298.5 678q12.5 0 21.5 9t9 22t-9 21.5t-21.5 8.5t-21.5 -8.5t-9 -21.5t9 -22t21.5 -9zM391 678q13 0 21.5 9t8.5 22t-8.5 21.5t-21.5 8.5t-22 -8.5
t-9 -21.5t9 -22t22 -9zM356 372h-40q-17 0 -28.5 -11.5t-11.5 -28.5v-199h120v199q0 17 -12 28.5t-28 11.5zM356 192q0 -8 -6 -13.5t-14.5 -5.5t-14 5.5t-5.5 13.5v120q0 9 5.5 14.5t14 5.5t14.5 -5.5t6 -14.5v-120zM515 532h-40q-16 0 -27.5 -11.5t-11.5 -28.5v-359h119
v359q0 17 -11.5 28.5t-28.5 11.5zM515 192q0 -8 -5.5 -13.5t-14 -5.5t-14.5 5.5t-6 13.5v280q0 8 6 14t14.5 6t14 -6t5.5 -14v-280zM675 452h-40q-16 0 -28 -11.5t-12 -28.5v-279h120v279q0 17 -11.5 28.5t-28.5 11.5zM675 192q0 -8 -6 -13.5t-14 -5.5t-14 5.5t-6 13.5v200
q0 8 6 14t14 6t14 -6t6 -14v-200z" />
    <glyph glyph-name="zichan" unicode="&#xe604;" 
d="M512 811q-104 0 -198.5 -40.5t-163 -109t-109.5 -163.5t-41 -199t41 -198.5t109.5 -163t163 -109t198.5 -40.5t198.5 40.5t163 109t109 163t40.5 198.5t-40.5 199t-109 163.5t-163 109t-198.5 40.5v0zM512 -148q-91 0 -174 35.5t-143 95.5t-95.5 143t-35.5 173.5
t35.5 173.5t95.5 143t143 95.5t174 35.5t173.5 -35.5t142.5 -95.5t95.5 -143t35.5 -173.5t-35.5 -173.5t-95.5 -143t-142.5 -95.5t-173.5 -35.5v0zM710 174q14 0 24.5 -8t10.5 -20q0 -11 -10.5 -19t-24.5 -8h-170v-95q0 -11 -10 -19t-25 -8t-25 8t-10 19v95h-170
q-14 0 -23.5 8.5t-9.5 19.5t9.5 19t23.5 8h170v82h-170q-14 0 -23.5 8t-9.5 20q0 11 9.5 18.5t23.5 7.5h144l-148 218q-8 9 -3 19.5t19 16.5q12 4 25.5 1t19.5 -12l150 -219l148 220q7 9 20.5 12.5t26.5 -2.5q13 -5 17 -15.5t-2 -19.5v1l-149 -220h142q14 0 24.5 -8
t10.5 -19.5t-10.5 -19t-24.5 -7.5h-170v-82h170v0zM710 174z" />
    <glyph glyph-name="guanyu" unicode="&#xe685;" 
d="M512 460q-13 0 -22.5 -9.5t-9.5 -22.5v-384q0 -13 9.5 -22.5t22.5 -9.5t22.5 9.5t9.5 22.5v384q0 13 -9.5 22.5t-22.5 9.5zM512 556zM480 556q0 13 9.5 22.5t22.5 9.5t22.5 -9.5t9.5 -22.5t-9.5 -22.5t-22.5 -9.5t-22.5 9.5t-9.5 22.5zM512 780q-98 0 -186.5 -38
t-153 -102.5t-102.5 -153t-38 -186.5t38 -186.5t102.5 -153t153 -102.5t186.5 -38t186.5 38t153 102.5t102.5 153t38 186.5t-38 186.5t-102.5 153t-153 102.5t-186.5 38zM512 -116q-172 0 -294 122t-122 294t122 294t294 122t294 -122t122 -294t-122 -294t-294 -122z" />
    <glyph glyph-name="gaojimoshi" unicode="&#xe609;" 
d="M993 620l-118 173q-17 25 -50.5 41.5t-66.5 16.5h-482q-33 0 -66.5 -16.5t-50.5 -41.5l-119 -172q-19 -28 -18 -66t21 -65l415 -553q23 -31 59 -31t59 31l414 553q21 27 22 64t-19 66zM758 792h4l-12 -11q-11 -10 -1 -21q5 -5 11 -5t10 4l26 24q21 -10 30 -24l119 -173
q4 -7 6 -16h-388l123 113q11 10 1 21t-21 1l-145 -133l-2 -2h-14l-2 2l-239 219q6 1 12 1h482zM208 759q8 11 24 20l229 -209h-377h-2q2 10 7 17zM91 525q-5 7 -7 16v0v0h189l14 -36q4 -9 14 -9q3 0 5 1q14 5 9 19l-10 25h421l-209 -541l-163 415q-2 6 -7.5 8.5t-11.5 0.5
q-14 -6 -8 -20l158 -405zM548 -2l210 543h192q-2 -9 -7 -16l-395 -527v0zM714 714q6 0 10 3l11 10q10 10 0 21t-20 1l-11 -10q-11 -10 -1 -21q5 -4 11 -4zM334 466l-5 13q-5 14 -19 8.5t-8 -18.5l5 -14q4 -9 14 -9q2 0 5 1q14 5 8 19z" />
    <glyph glyph-name="lianjie" unicode="&#xe60b;" 
d="M352 76l384 384q14 14 14 34t-14 34t-34 14t-34 -14l-384 -385q-14 -14 -14 -33.5t14 -33.5v0q14 -14 34 -14t34 14v0zM479 142q8 -11 8 -25q0 -18 -13 -30l-201 -201q-12 -13 -30 -13t-30 13l-115 114q-12 13 -12 30.5t12 30.5l201 201q13 12 31 12q10 0 20 -5l61 62
q-38 31 -87.5 28.5t-84.5 -37.5l-201 -201q-38 -37 -38 -90.5t38 -90.5l114 -114q38 -38 91 -38t90 38l201 201q36 36 37.5 87t-32.5 89l-60 -61v0zM986 659l-114 115q-38 37 -91 37t-90 -37l-202 -201q-35 -35 -37 -85t29 -87l61 61q-5 9 -5 20q0 18 13 30l201 202
q12 12 30 12t30 -12l115 -115q12 -12 12 -30t-12 -30l-201 -202q-13 -12 -31 -12q-13 0 -24 8l-61 -61q38 -33 89 -32t87 37l201 202q38 37 38 90t-38 90v0z" />
    <glyph glyph-name="bangzhu" unicode="&#xe607;" 
d="M512 744q91 0 174.5 -34.5t148 -99t99 -148t34.5 -174.5t-34.5 -174.5t-99 -148t-148 -99t-174.5 -34.5t-174.5 34.5t-148 99t-99 148t-34.5 174.5t34.5 174.5t99 148t148 99t174.5 34.5zM512 797q-102 0 -195 -38.5t-165 -110.5t-110.5 -165t-38.5 -195t38.5 -195
t110.5 -165t165 -110.5t195 -38.5t195 38.5t165 110.5t110.5 165t38.5 195t-38.5 195t-110.5 165t-165 110.5t-195 38.5v0zM652.5 538q-50.5 45 -131.5 45q-93 0 -146.5 -54.5t-53.5 -148.5v0q1 -14 11.5 -24.5t25.5 -10.5t25.5 10.5t11.5 24.5v0v2v0v1q1 138 122 138
q47 0 77.5 -27t30.5 -69q0 -50 -57 -101l-28 -24q-41 -37 -52.5 -64.5t-11.5 -87.5v0v-3q0 -14 10 -24.5t24 -10.5t24 9.5t11 22.5v0v13q0 62 59 110q99 81 99 155q0 73 -50.5 118zM465 25q0 -19 14 -33t33 -14t33 14t14 33t-14 33t-33 14t-33 -14t-14 -33z" />
    <glyph glyph-name="icon2" unicode="&#xe603;" 
d="M165 421q-38 21 -89 33q-8 2 -10 5q-64 72 -64 137q0 21 8 43q5 14 18 8q60 -32 76 -42q2 4 -5 13q-18 29 -46 55q-8 7 3 11q35 13 93 3q3 -1 14 -3q46 -12 58 -20.5t39 -47.5q33 -50 46 -77q1 30 -13 94q9 -6 32.5 -21t35 -23t29 -22t29.5 -29t21 -32q17 47 20 96
q1 16 0 51q0 23 13 33t36 4q241 -69 324 -92q28 -8 80.5 -22.5t76.5 -21.5q16 -4 22.5 -12t7.5 -24q7 -105 -40 -228q-76 -199 -225 -325q-100 -85 -207 -100q-11 -1 -27 3q-78 22 -213 85q-108 51 -248 128q-22 12 -21 34q1 21 24 31q92 39 179 106q11 7 20 1q6 -3 54 -31
q-66 -56 -169 -112q116 -59 123 -63q118 -58 226 -101q51 -21 106 3q88 38 165 123q129 142 173 314q12 49 13 97q1 12 -11 15q-186 52 -402 112q-6 2 -9 0.5t-3 -8.5q-5 -78 -33 -145q-3 -7 3 -17q51 -81 76 -192l1 -10q-106 117 -203 193q-80 62 -150 91q0 1 -8 3
q-5 1 -5.5 1t-0.5 -4q60 -38 124.5 -94.5t101.5 -94t108 -112.5q4 -3 95 -101q12 -14 7 -25q-5 -9 -14 -10t-17 7q-23 23 -44 47q-9 10 -23 16q-213 102 -340 187q-64 43 -95 74q9 2 23 1.5t23 -0.5q1 0 3.5 -0.5t3.5 0.5t1 4v0z" />
    <glyph glyph-name="qianbao1" unicode="&#xe62e;" 
d="M774 113h-46q-9 0 -15.5 -6.5t-6.5 -16t6.5 -16t15.5 -6.5h46q9 0 15.5 6.5t6.5 16t-6.5 16t-15.5 6.5zM232 113h-45q-9 0 -15.5 -6.5t-6.5 -16t6.5 -16t15.5 -6.5h45q10 0 16.5 6.5t6.5 16t-6.5 16t-16.5 6.5zM818.5 316q-9.5 0 -16 -6.5t-6.5 -16t6.5 -16t16 -6.5
t16 6.5t6.5 16t-6.5 16t-16 6.5zM931 429v180q0 36 -25 62t-61 28l-6 44l-349 -42l-334 89l-24 -91h-12q-38 0 -64.5 -26.5t-26.5 -63.5v-541q0 -37 26.5 -63.5t64.5 -26.5h721q37 0 63.5 26.5t26.5 63.5v90q38 0 64.5 26.5t26.5 63.5v91q0 37 -26.5 63.5t-64.5 26.5z
M886 609v-12q-14 8 -30 11l-6 45q16 -3 26 -15.5t10 -28.5zM800 693l9 -78l-203 55zM188 735l470 -126h-504zM75 609q0 19 13 32t32 13l-13 -46q-17 -3 -32 -11v12v0zM886 68q0 -19 -13 -32t-32 -13h-721q-19 0 -32 13t-13 32v451q0 19 13 32t32 13h721q19 0 32 -13t13 -32
v-90h-90q-37 0 -63.5 -26.5t-26.5 -63.5v-91q0 -37 26.5 -63.5t63.5 -26.5h90v-90zM976 248q0 -18 -13 -31.5t-32 -13.5h-135q-19 0 -32 13.5t-13 31.5v91q0 18 13 31.5t32 13.5h135q19 0 32 -13.5t13 -31.5v-91zM232 519h-45q-9 0 -15.5 -6.5t-6.5 -16t6.5 -16t15.5 -6.5
h45q10 0 16.5 6.5t6.5 16t-6.5 16t-16.5 6.5zM728 474h46q9 0 15.5 6.5t6.5 16t-6.5 16t-15.5 6.5h-46q-9 0 -15.5 -6.5t-6.5 -16t6.5 -16t15.5 -6.5zM503 519h-45q-9 0 -16 -6.5t-7 -16t7 -16t16 -6.5h45q9 0 15.5 6.5t6.5 16t-6.5 16t-15.5 6.5zM638 113h-45
q-9 0 -15.5 -6.5t-6.5 -16t6.5 -16t15.5 -6.5h45q10 0 16.5 6.5t6.5 16t-6.5 16t-16.5 6.5zM638 519h-45q-9 0 -15.5 -6.5t-6.5 -16t6.5 -16t15.5 -6.5h45q10 0 16.5 6.5t6.5 16t-6.5 16t-16.5 6.5zM503 113h-45q-9 0 -16 -6.5t-7 -16t7 -16t16 -6.5h45q9 0 15.5 6.5t6.5 16
t-6.5 16t-15.5 6.5zM368 519h-45q-10 0 -16.5 -6.5t-6.5 -16t6.5 -16t16.5 -6.5h45q9 0 15.5 6.5t6.5 16t-6.5 16t-15.5 6.5zM368 113h-45q-10 0 -16.5 -6.5t-6.5 -16t6.5 -16t16.5 -6.5h45q9 0 15.5 6.5t6.5 16t-6.5 16t-15.5 6.5z" />
    <glyph glyph-name="zichanmingxi" unicode="&#xe606;" 
d="M828 723q-9 29 -31 47.5t-49 24t-55.5 3t-52.5 -12.5q-42 -16 -71 -64.5t-38 -99.5v0q-5 -31 25 -32q58 -1 106 5.5t77.5 18t43 19.5t22.5 15q36 31 23 76zM777 678q-17 -15 -41 -24.5t-56.5 -14t-50.5 -5.5t-50 -2v0q7 44 40 83t76 43q4 2 16 0.5t25.5 -4t28 -13.5
t23.5 -28q4 -9 0.5 -19t-11.5 -16zM491 621v0q-9 51 -38 99.5t-71 64.5q-24 10 -52.5 12.5t-55.5 -3t-49 -24t-31 -47.5q-13 -45 23 -76q8 -7 22 -15t43.5 -19.5t77.5 -18t106 -5.5q30 1 25 32zM443 632v0q-32 1 -50 2t-50.5 5.5t-56.5 14t-41 24.5q-8 6 -11.5 16t0.5 19
q9 17 23.5 28t28 13.5t25.5 4t16 -0.5q43 -4 75.5 -43t40.5 -83v0v0zM300 549h424q9 0 15.5 -6.5t6.5 -15.5v0q0 -9 -6.5 -15.5t-15.5 -6.5h-424q-9 0 -15.5 6.5t-6.5 15.5v0q0 9 6.5 15.5t15.5 6.5zM974 -89l-248 552l-429 -3l-250 -561q-19 -42 12.5 -80.5t77.5 -38.5h751
q53 0 80.5 41.5t5.5 89.5zM885 -177h-748q-29 0 -44.5 22t-4.5 47l235 529l377 -1l231 -517q14 -30 0 -55t-46 -25zM395 50v0v5q0 10 7 17t17 7q9 0 15.5 -5.5t8.5 -13.5v0v-0.5v-0.5v-3q5 -33 22 -52q18 -19 51 -19t49 17t16 40q0 21 -15 33q-9 8 -48 20q-54 18 -73 30
q-21 12 -31.5 34t-10.5 48q0 24 9 45q8 20 23 34q12 10 31 18q12 4 26 6v0v27q0 8 6 14t15 6v0q8 0 14 -6t6 -14v-27v-1q18 -3 33 -10q25 -13 37 -33.5t16 -55.5v0v-5q0 -10 -6.5 -17t-16.5 -7q-9 0 -15.5 6t-7.5 15h-1q-3 27 -18 43t-43 16q-33 0 -47.5 -14t-14.5 -33
q0 -11 6 -21t19 -16q8 -4 42 -16q51 -17 71 -28t31.5 -32t11.5 -52t-14 -58t-41 -41q-19 -11 -42 -14v-1v-26q0 -9 -6 -15t-14 -6v0q-9 0 -15 6t-6 15v26v1q-38 6 -60 28q-29 29 -37 86v0v0z" />
    <glyph glyph-name="gaojiliucheng" unicode="&#xe60a;" horiz-adv-x="1265" 
d="M884 686h-111q-87 0 -149 -62t-62 -149q0 -38 -26.5 -64.5t-63.5 -26.5h-92q-19 54 -65 87.5t-104 33.5q-75 0 -128 -53t-53 -128t53 -128t128 -53q58 0 104 34t65 87h92q37 0 63.5 -26.5t26.5 -63.5q0 -88 62 -149.5t149 -61.5h111q20 -54 66 -87.5t104 -33.5
q75 0 128 53t53 128t-53 128t-128 53q-58 0 -104 -34t-66 -87h-111q-37 0 -63.5 26.5t-26.5 64.5q0 88 -64 150q64 62 64 151q0 37 26.5 63.5t63.5 26.5h111q20 -53 66 -86.5t104 -33.5q75 0 128 53t53 127.5t-53 127.5t-128 53q-58 0 -104 -33.5t-66 -86.5v0zM1114 23
q0 -25 -17.5 -42.5t-42.5 -17.5t-42.5 17.5t-17.5 42.5t17.5 42.5t42.5 17.5t42.5 -17.5t17.5 -42.5v0zM151 324q0 25 17.5 42.5t42.5 17.5t42.5 -17.5t17.5 -42.5t-17.5 -42.5t-42.5 -17.5t-42.5 17.5t-17.5 42.5v0zM1114 625q0 -25 -17.5 -42.5t-42.5 -17.5t-42.5 17.5
t-17.5 42.5t17.5 43t42.5 18t42.5 -18t17.5 -43v0z" />
    <glyph glyph-name="renmai" unicode="&#xe608;" 
d="M620 303q31 23 49 57t18 72q0 69 -51.5 117t-124 48t-124 -48t-51.5 -117q0 -38 18 -72t49 -57q-82 -31 -133 -100t-51 -155v-55q0 -11 8.5 -19t20.5 -8h527q12 0 20.5 8t8.5 19v55q0 86 -51 155t-133 100v0zM512 542q48 0 82.5 -32t34.5 -77.5t-34.5 -77.5t-83 -32
t-83 32t-34.5 77.5t34.5 77.5t83.5 32v0zM746 21h-469v27q0 91 69 155.5t165.5 64.5t165.5 -64.5t69 -155.5v-27v0zM315 293l2 6v3q1 3 0 6v1.5v2t-0.5 1l-0.5 0.5q0 1 -2 4q-2 4 -4 6l-0.5 0.5l-0.5 0.5q-4 4 -9 6q-24 10 -38 30.5t-14 44.5q0 29 18.5 51t48.5 29
q12 3 18.5 12.5t3.5 20.5t-13.5 17t-22.5 3q-49 -11 -80.5 -48t-31.5 -85q0 -53 38 -92q-57 -28 -91.5 -80.5t-34.5 -114.5v-42q0 -12 9 -20t21 -8t20.5 8t8.5 20v42q0 57 37 101.5t96 58.5q16 2 22 15v0zM796 313q38 39 38 92q0 46 -30.5 83.5t-78.5 49.5q-11 3 -22 -3
t-14 -17t3 -21t18 -12q29 -8 47 -30t18 -50q0 -24 -14 -44.5t-38 -30.5q-5 -2 -9 -6q-1 0 -1 -0.5v-0.5q-2 -2 -5 -6q-1 -3 -1 -4l-0.5 -0.5t-0.5 -1v-2v-1.5q-1 -3 0 -6v-3l1 -6q7 -13 23 -15q59 -14 96 -58.5t37 -101.5v-42q0 -12 8.5 -20t20.5 -8t20.5 8t8.5 20v42
q0 62 -34 114.5t-91 80.5v0z" />
    <glyph glyph-name="lianxiren" unicode="&#xe635;" 
d="M440 324q-112 0 -191 79.5t-79 191t79 190.5t191 79t191 -79t79 -190.5t-79 -191t-191 -79.5zM440.5 806q-87.5 0 -150 -62t-62.5 -149.5t62.5 -149.5t150 -62t149.5 62t62 149.5t-62 149.5t-149.5 62zM837 -81q-12 0 -20.5 8.5t-8.5 20.5q0 31 -22 98l-5 16
q-36 116 -129 185t-212 69q-122 0 -218.5 -71.5t-132.5 -187.5q-17 -53 -17 -109q0 -12 -8.5 -20.5t-20.5 -8.5t-20.5 8.5t-8.5 20.5q0 65 19 127q41 134 153.5 216.5t253.5 82.5q138 0 246 -80t151 -214l5 -16q25 -75 25 -116q0 -12 -9 -20.5t-21 -8.5zM980 414h-252
q-12 0 -20.5 8.5t-8.5 21t8.5 21t20.5 8.5h252q12 0 20.5 -8.5t8.5 -21t-8.5 -21t-20.5 -8.5zM980 285h-192q-12 0 -21 8.5t-9 20.5t9 20.5t21 8.5h192q12 0 20.5 -8.5t8.5 -20.5t-8.5 -20.5t-20.5 -8.5zM980 155h-118q-12 0 -20.5 8.5t-8.5 20.5t8.5 20.5t20.5 8.5h118
q12 0 20.5 -8.5t8.5 -20.5t-8.5 -20.5t-20.5 -8.5z" />
    <glyph glyph-name="comiisjiahao" unicode="&#xe60d;" 
d="M872 743q-73 72 -165.5 110t-195 38t-195 -38t-165 -110t-111 -164.5t-38.5 -194t38.5 -194t110.5 -164.5t165 -110.5t195 -38.5t195 38.5t165.5 110.5t111 164.5t38.5 194t-38.5 194t-110.5 164.5v0zM766 348h-218v-218q0 -15 -10.5 -26t-26 -11t-26 11t-10.5 26v218
h-218q-15 0 -26 10.5t-11 25.5t11 26t26 11h218v218q0 15 10.5 25.5t26 10.5t26 -10.5t10.5 -25.5v-218h218q15 0 26 -11t11 -26t-11 -25.5t-26 -10.5v0zM766 348z" />
    <glyph glyph-name="beifen-copy" unicode="&#xe605;" 
d="M1008 417l-117 -121q-8 -7 -18 -7t-17 7l-117 121q-7 8 -6.5 14.5t2 8l9.5 9.5h107q-23 123 -118 205t-221 82q-97 0 -177.5 -50t-125.5 -133l-58 24q52 101 148.5 161.5t212.5 60.5q152 0 265.5 -100t136.5 -250h89q19 -19 5 -32v0zM170 443l117 -121q14 -14 -5 -32
h-102q31 -112 123 -183.5t209 -71.5q88 0 164 42.5t123 114.5l59 -24q-55 -90 -146.5 -143.5t-199.5 -53.5q-143 0 -253.5 90t-142.5 229h-93q-1 1 -3.5 3t-3 3t-2.5 3t-2 3t-1 3t-0.5 3.5t1 3.5t2 4.5t4.5 5.5l116 121q8 7 18 7t18 -7v0zM170 443z" />
    <glyph glyph-name="fenlei" unicode="&#xe657;" 
d="M50.5 764q-19.5 0 -33.5 -14t-14 -33.5t14 -33.5t33.5 -14t33.5 14t14 33.5t-14 33.5t-33.5 14zM50.5 414q-19.5 0 -33.5 -14t-14 -33.5t14 -33.5t33.5 -14t33.5 14t14 33.5t-14 33.5t-33.5 14zM50.5 96q-19.5 0 -33.5 -14t-14 -34t14 -34t33.5 -14t33.5 14t14 34t-14 34
t-33.5 14zM1005 764h-732q-6 0 -11 -4.5t-5 -11.5v-31q0 -7 5 -11.5t11 -4.5h732q7 0 11.5 4.5t4.5 11.5v31q0 7 -4.5 11.5t-11.5 4.5zM1005 414h-732q-6 0 -11 -4.5t-5 -11.5v-31q0 -7 5 -11.5t11 -4.5h732q7 0 11.5 4.5t4.5 11.5v31q0 7 -4.5 11.5t-11.5 4.5zM1005 96
h-732q-6 0 -11 -4.5t-5 -11.5v-32q0 -6 5 -11t11 -5h732q7 0 11.5 5t4.5 11v32q0 7 -4.5 11.5t-11.5 4.5z" />
    <glyph glyph-name="kaifa2" unicode="&#xe66d;" 
d="M950 822h-877q-33 0 -53.5 -24t-20.5 -64v-713q0 -31 21 -53t53 -22h877q32 0 52.5 22t20.5 53v713q0 40 -20 64t-53 24zM73 776h877q13 0 22.5 -11t9.5 -27v-203h-941v203q0 16 9 27t23 11v0zM950 -12h-877q-14 0 -23 10t-9 25v461h941v-461q0 -15 -9.5 -25t-22.5 -10v0
zM159 657q0 -20 14.5 -34.5t35 -14.5t35 14.5t14.5 34.5v0q0 21 -14.5 35t-35 14t-35 -14t-14.5 -35v0zM293 657q0 -20 14.5 -34.5t34.5 -14.5t34.5 14.5t14.5 34.5v0q0 21 -14.5 35t-34.5 14t-34.5 -14t-14.5 -35v0zM426 657q0 21 14.5 35t35 14t35 -14t14.5 -35v0
q0 -20 -14.5 -34.5t-35 -14.5t-35 14.5t-14.5 34.5v0zM456 112h38l85 263h-38l-85 -263v0zM159 234v-13v-14l171 -67l1 32l-110 48l110 44v33l-172 -63v0zM711 294v-33l111 -44l-110 -48v-32l171 67v14v13z" />
    <glyph glyph-name="chacha01" unicode="&#xe60e;" 
d="M512 -123q-103 0 -197.5 40t-162.5 108.5t-108 162.5t-40 197.5t40 197.5t108 162t162.5 108.5t197.5 40.5t197.5 -40.5t162.5 -108.5t108 -162t40 -197.5t-40 -197.5t-108 -162.5t-162.5 -108.5t-197.5 -40zM694 522q9 9 9 22.5t-9.5 22.5t-22.5 9t-23 -9l-136 -137
l-135 135q-9 9 -22 9t-22.5 -9t-9.5 -22.5t9 -22.5l135 -134l-136 -136q-9 -9 -9 -22.5t9.5 -23t22.5 -9.5t23 10l135 135l135 -134q9 -10 22 -10t22.5 9.5t9.5 22.5t-9 23l-135 134z" />
    <glyph glyph-name="xiugaimima" unicode="&#xe6a9;" 
d="M837 -128h-637q-48 0 -82 37.5t-34 90.5v320q0 53 34 90.5t82 37.5v96q0 96 42.5 177t116 128t160 47t160 -47t116 -128t42.5 -177v-2h-1q0 -13 -8.5 -21.5t-20 -8.5t-19.5 8.5t-9 21.5v0v2q0 119 -76.5 203.5t-184.5 84.5t-184 -84.5t-76 -203.5v-96h579q48 0 82 -37.5
t34 -90.5v-320q0 -53 -34 -90.5t-82 -37.5v0zM895 320q0 27 -17 45.5t-41 18.5h-637q-24 0 -41 -18.5t-17 -45.5v-320q0 -27 17 -45.5t41 -18.5h637q24 0 41 18.5t17 45.5v320v0zM547 134v-102q0 -13 -8.5 -22.5t-20.5 -9.5t-20.5 9.5t-8.5 22.5v102q-25 11 -41.5 35
t-16.5 55q0 40 25.5 68t61.5 28t61.5 -28t25.5 -68q0 -31 -16 -55t-42 -35v0zM518 256q-12 0 -20.5 -9.5t-8.5 -22.5t8.5 -22.5t20.5 -9.5t20.5 9.5t8.5 22.5t-8.5 22.5t-20.5 9.5v0z" />
    <glyph glyph-name="yinsi" unicode="&#xe7a3;" 
d="M978 583q-39 91 -109 161t-161 108q-94 40 -196.5 40t-196.5 -40q-91 -38 -161 -108t-109 -161q-39 -94 -39 -197t39 -197q39 -90 109 -160t161 -109q94 -40 196.5 -40t196.5 40q91 39 161 109t109 160q39 94 39 197t-39 197zM511.5 -75q-93.5 0 -179 36.5t-147.5 98.5
t-98.5 147.5t-36.5 179t36.5 179t98.5 147.5t147.5 98.5t179 36.5t179 -36.5t147.5 -98.5t98.5 -147.5t36.5 -179t-36.5 -179t-98.5 -147.5t-147.5 -98.5t-179 -36.5zM514 663q-63 0 -125.5 -12.5t-84 -21t-33.5 -14.5l-11 -5v-12q3 -133 41 -239q31 -86 83 -150
q27 -32 58 -57t43 -31.5t19 -9.5l8 -4l8 4q84 42 142 128q45 69 71 162q30 106 30 197v13l-11 4q-114 48 -238 48zM697 411q-54 -193 -186 -262q-53 28 -99 86q-106 131 -114 351q99 40 216 40q110 0 211 -40q-3 -89 -28 -175zM435 445q0 -40 32 -63v-50q0 -18 12.5 -30.5
t30.5 -12.5t30.5 12.5t12.5 30.5v49q35 22 35 64q0 32 -22.5 54.5t-54 22.5t-54 -22.5t-22.5 -54.5zM565 445q0 -32 -29 -48l-6 -3v-62q0 -8 -6 -14t-14 -6t-14 6t-6 14v63l-6 4q-26 15 -26 46q0 22 15.5 37.5t38 15.5t38 -15.5t15.5 -37.5z" />
    <glyph glyph-name="fuzhi" unicode="&#xe689;" 
d="M243 47h379q9 0 15.5 6.5t6.5 15.5t-6.5 15.5t-15.5 6.5h-379q-9 0 -15.5 -6.5t-6.5 -15.5t6.5 -15.5t15.5 -6.5zM243 527h379q9 0 15.5 6.5t6.5 16t-6.5 16t-15.5 6.5h-379q-9 0 -15.5 -6.5t-6.5 -16t6.5 -16t15.5 -6.5zM243 367h379q9 0 15.5 6.5t6.5 15.5t-6.5 15.5
t-15.5 6.5h-379q-9 0 -15.5 -6.5t-6.5 -15.5t6.5 -15.5t15.5 -6.5zM243 207h379q9 0 15.5 6.5t6.5 15.5t-6.5 15.5t-15.5 6.5h-379q-9 0 -15.5 -6.5t-6.5 -15.5t6.5 -15.5t15.5 -6.5zM897 883h-610q-21 0 -36.5 -15.5t-15.5 -37.5v-91h-137q-13 0 -23 -9.5t-10 -23.5v-791
q0 -14 10 -23.5t23 -9.5h669q13 0 23 9.5t10 23.5v141h97q21 0 36.5 15.5t15.5 37.5v721q0 22 -15.5 37.5t-36.5 15.5zM755 -74h-645v769h645v-769zM905 109q0 -8 -8 -8h-97v605q0 14 -10 23.5t-23 9.5h-488v91q0 8 8 8h610q8 0 8 -8v-721z" />
    <glyph glyph-name="fasong" unicode="&#xe610;" 
d="M1008 896l-992 -512l288 -160v73l-153 85l675 348l-458 -506v-352l184 203l232 -139zM432 38v109l64 -39zM445 214l455 503l-160 -681z" />
    <glyph glyph-name="qiahaoshezhi" unicode="&#xe6ab;" horiz-adv-x="1279" 
d="M1089 297h-101q-13 0 -21.5 -9.5t-8.5 -23t8.5 -23t21.5 -9.5h101q12 0 20.5 9.5t8.5 23t-8.5 23t-20.5 9.5zM1118 896h-957q-67 0 -114 -53t-47 -128v-662q0 -75 47 -128t114 -53h957q67 0 114 53t47 128v662q0 75 -47 128t-114 53zM1219 45q0 -45 -28.5 -77.5
t-68.5 -32.5h-969q-40 0 -69 32.5t-29 77.5v514h1164v-514zM1219 624h-1164v99q0 45 29 77.5t69 32.5h969q40 0 68.5 -32.5t28.5 -77.5v-99zM664 448h-477q-12 0 -21 -9.5t-9 -23t9 -23t21 -9.5h477q12 0 20.5 9.5t8.5 23t-8.5 23t-20.5 9.5zM1089 179h-101
q-13 0 -21.5 -9.5t-8.5 -23t8.5 -23t21.5 -9.5h101q12 0 20.5 9.5t8.5 23t-8.5 23t-20.5 9.5v0z" />
    <glyph glyph-name="saoyisao" unicode="&#xe621;" 
d="M84 402h856v-36h-856v36zM940 491v268q0 22 -15.5 37.5t-37.5 15.5h-250v-71h205q11 0 19 -8t8 -19v-223h71zM940 277v-268q0 -22 -15.5 -37.5t-37.5 -15.5h-250v71h205q11 0 19 8t8 19v223h71zM84 491v268q0 22 15.5 37.5t37.5 15.5h250v-71h-205q-11 0 -19 -8t-8 -19
v-223h-71zM84 277v-268q0 -22 15.5 -37.5t37.5 -15.5h250v71h-205q-11 0 -19 8t-8 19v223h-71z" />
  </font>
</defs>
</svg>
